<svg width="9" height="8" viewBox="0 0 9 8" fill="none" xmlns="http://www.w3.org/2000/svg">
<path d="M8.06469 6.82842L5.23627 3.99999L8.06469 1.17156C8.18972 1.04654 8.25995 0.876971 8.25995 0.70016C8.25995 0.523349 8.18972 0.35378 8.06469 0.228755C7.93967 0.103731 7.7701 0.0334935 7.59329 0.0334934C7.41648 0.0334934 7.24691 0.103731 7.12188 0.228755L4.29346 3.05718L1.46503 0.228755C1.34001 0.103731 1.17044 0.0334932 0.993626 0.0334932C0.816815 0.0334932 0.647245 0.103731 0.522221 0.228755C0.397197 0.353779 0.326959 0.523349 0.326959 0.70016C0.326959 0.876971 0.397197 1.04654 0.522221 1.17156L3.35065 3.99999L0.522221 6.82842C0.397197 6.95344 0.326958 7.12301 0.326958 7.29982C0.326958 7.47663 0.397197 7.6462 0.522221 7.77123C0.647245 7.89625 0.816814 7.96649 0.993625 7.96649C1.17044 7.96649 1.34001 7.89625 1.46503 7.77123L4.29346 4.9428L7.12188 7.77123C7.24691 7.89625 7.41648 7.96649 7.59329 7.96649C7.7701 7.96649 7.93967 7.89625 8.06469 7.77123C8.18972 7.6462 8.25995 7.47663 8.25995 7.29982C8.25995 7.12301 8.18972 6.95344 8.06469 6.82842Z" fill="#FF7A2E"/>
</svg>
