<svg width="12" height="12" viewBox="0 0 12 12" fill="none" xmlns="http://www.w3.org/2000/svg">
<path d="M10.9602 5.33366L6.9602 5.33366L6.9602 1.33366C6.9602 1.15685 6.88997 0.987279 6.76494 0.862254C6.63992 0.73723 6.47035 0.666992 6.29354 0.666992C6.11673 0.666992 5.94716 0.73723 5.82213 0.862254C5.69711 0.987279 5.62687 1.15685 5.62687 1.33366L5.62687 5.33366L1.62687 5.33366C1.45006 5.33366 1.28049 5.4039 1.15547 5.52892C1.03044 5.65394 0.960205 5.82351 0.960205 6.00032C0.960205 6.17714 1.03044 6.3467 1.15547 6.47173C1.28049 6.59675 1.45006 6.66699 1.62687 6.66699L5.62687 6.66699L5.62687 10.667C5.62687 10.8438 5.69711 11.0134 5.82213 11.1384C5.94716 11.2634 6.11673 11.3337 6.29354 11.3337C6.47035 11.3337 6.63992 11.2634 6.76494 11.1384C6.88997 11.0134 6.9602 10.8438 6.9602 10.667L6.9602 6.66699L10.9602 6.66699C11.137 6.66699 11.3066 6.59675 11.4316 6.47173C11.5566 6.3467 11.6269 6.17714 11.6269 6.00032C11.6269 5.82351 11.5566 5.65394 11.4316 5.52892C11.3066 5.4039 11.137 5.33366 10.9602 5.33366Z" fill="#FF7A2E"/>
</svg>
