<svg width="8" height="8" viewBox="0 0 8 8" fill="none" xmlns="http://www.w3.org/2000/svg">
<path d="M7.77172 6.82891L4.9433 4.00048L7.77172 1.17205C7.89675 1.04703 7.96699 0.877459 7.96699 0.700648C7.96699 0.523837 7.89675 0.354268 7.77172 0.229244C7.6467 0.104219 7.47713 0.0339817 7.30032 0.0339816C7.12351 0.0339819 6.95394 0.10422 6.82892 0.229244L4.00049 3.05767L1.17206 0.229244C1.04704 0.10422 0.877468 0.0339819 0.700657 0.0339816C0.523846 0.0339817 0.354277 0.104219 0.229252 0.229244C0.104228 0.354268 0.0339904 0.523837 0.0339903 0.700648C0.0339906 0.877459 0.104228 1.04703 0.229252 1.17205L3.05768 4.00048L0.229253 6.82891C0.104228 6.95393 0.0339901 7.1235 0.0339901 7.30031C0.0339898 7.47712 0.104228 7.64669 0.229252 7.77172C0.354277 7.89674 0.523845 7.96698 0.700657 7.96698C0.877467 7.96698 1.04704 7.89674 1.17206 7.77172L4.00049 4.94329L6.82892 7.77172C6.95394 7.89674 7.12351 7.96698 7.30032 7.96698C7.47713 7.96698 7.6467 7.89674 7.77172 7.77172C7.89675 7.64669 7.96699 7.47712 7.96699 7.30031C7.96699 7.1235 7.89675 6.95393 7.77172 6.82891Z" fill="#FF7A2E"/>
</svg>
